<?xml version="1.0" encoding="UTF-8"?>
<svg id="Layer_1" data-name="Layer 1" xmlns="http://www.w3.org/2000/svg" viewBox="0 0 302.48 143.43">
  <defs>
    <style>
      .cls-1 {
        fill: #594078;
      }

      .cls-2 {
        fill: #fff;
      }
    </style>
  </defs>
  <path class="cls-1" d="M302.48,133.34c-16.22-13.12-39.28-19.06-55.22-15.1-13.23-10.02-37.62-10.49-46.69.85-20.21-11.29-39.15-10.46-55.14-4.07-7.36,2.94-12.52,8.74-16.69,11.91-4,0-18.18,6.62-24.56,15.46l-1.55,1.04.38-1.84c2.37-5.35,8.19-22.32,2.98-27.46,1.38-5.12,2.69-14.84,1.42-19.94-3.96-15.94-16.46-25.05-33.97-31.3.23-.52.53-1.02.63-1.58,2.53-14.08-10.64-27.14-28.88-30.54C41.9,15.05,22.81,10.56,0,2.45,15.98,1.26,45.29-.34,65.93.06c15.24.29,31.34,3.86,43.14,8.76,8.53,3.54,12.96,10.06,14.83,21.64,1.09,6.73,5.74,18.41,12.93,25.26,4.03-5.4,11.73-12.85,16.17-16.1l13.88-23.58-3.18,18.15c3.88-1.01,7.38-.72,10.08,1.13,2.77,1.89,4.35,5.17,4.83,9.33l16.69-15.24-17.94,27.78c-1.36,5.09-1.69,9.66-4.45,14.23,2.39.65,11.63.39,14.26-.08,15.3-2.75,18.93-7.05,26.41-9.25,4.5-1.32,13.79-.66,20.71,1.62,7.88,2.59,27.13,15.89,37.9,27.57,13.74,14.91,25.64,30.39,30.3,42.07Z"/>
  <polygon class="cls-2" points="162.33 69.44 166.21 63.65 163.16 62.61 162.33 69.44"/>
  <polygon class="cls-2" points="152.82 57.19 150.73 54.72 146.85 60.52 152.82 57.19"/>
</svg>